<svg xmlns="http://www.w3.org/2000/svg" xmlns:xlink="http://www.w3.org/1999/xlink" version="1.1" id="Layer_1" x="0px" y="0px" viewBox="0 0 102 11" style="enable-background:new 0 0 102 11;" xml:space="preserve">
<style type="text/css">
	.st0{fill:#000000;}
</style>
<g id="XMLID_41_">
	<path id="XMLID_42_" class="st0" d="M7.7,6.8c-0.1,0-0.1,0-0.2,0c0,0-0.1,0.1-0.1,0.1c0,0.1,0,0.3-0.1,0.4c0,0.2-0.1,0.3-0.2,0.5   C7,8.1,6.9,8.2,6.7,8.3C6.6,8.4,6.4,8.5,6.1,8.5H4.4c-0.1,0-0.2,0-0.3,0c-0.1,0-0.2,0-0.2-0.1c-0.1,0-0.1-0.1-0.2-0.2   c0-0.1-0.1-0.2-0.1-0.3V5.1c0,0,0-0.1,0.1-0.1h1.8c0.1,0,0.2,0,0.3,0c0.1,0,0.2,0.1,0.3,0.2c0.1,0.1,0.1,0.2,0.2,0.3   s0.1,0.3,0.1,0.6c0,0,0,0,0,0s0,0,0,0h0.3c0,0,0,0,0,0s0,0,0,0V3.3c0,0,0-0.1-0.1-0.1H6.5c0,0-0.1,0-0.1,0.1c0,0.2,0,0.4-0.1,0.5   c0,0.1-0.1,0.2-0.2,0.3C6.1,4.1,6,4.2,5.9,4.2c-0.1,0-0.2,0-0.3,0H3.7c0,0-0.1,0-0.1-0.1v-3c0-0.1,0-0.1,0.1-0.1H6   c0.2,0,0.3,0.1,0.4,0.1c0.1,0.1,0.2,0.2,0.2,0.2s0.1,0.2,0.1,0.3c0,0.1,0,0.2,0.1,0.3c0,0.1,0,0.2,0,0.3s0,0.1,0.1,0.2   c0,0,0,0,0.1,0c0,0,0.1,0,0.1,0c0,0,0.1,0,0.1,0c0,0,0.1,0,0.1,0l-0.1-2c0-0.1,0-0.2-0.1-0.2c0,0-0.1,0-0.2,0H0.5c0,0,0,0,0,0   c0,0,0,0,0,0v0.2c0,0,0,0,0,0c0,0,0,0,0,0h0.1c0.1,0,0.3,0,0.4,0.1s0.3,0.1,0.4,0.1S1.6,1,1.7,1.1c0.1,0.1,0.1,0.2,0.1,0.4V8   c0,0.2,0,0.4-0.1,0.5S1.4,8.8,1.3,8.8S0.9,8.9,0.7,8.9c-0.2,0-0.4,0-0.6,0H0c0,0,0,0,0,0c0,0,0,0,0,0v0.2v0.1c0,0,0,0,0,0s0,0,0,0   h7.5c0,0,0,0,0.1,0s0,0,0-0.1l0.2-2.3C7.8,6.8,7.8,6.8,7.7,6.8C7.8,6.8,7.7,6.8,7.7,6.8z M18.8,0.3h-3.3c-0.1,0-0.1,0-0.1,0.1   s0,0.1,0,0.1c0,0,0,0.1,0,0.1s0,0.1,0.1,0.1c0.1,0,0.2,0,0.3,0s0.2,0,0.2,0.1c0.1,0,0.1,0.1,0.1,0.2c0,0.1,0,0.2,0,0.3   c0,0.1,0,0.2-0.1,0.4s-0.1,0.2-0.2,0.3l-1.6,2.6c0,0.1-0.1,0.1-0.1,0.1c0,0-0.1,0.1-0.1,0.1c0,0-0.1,0-0.1,0c0,0,0-0.1-0.1-0.1   l-2-3.1c-0.1-0.1-0.1-0.2-0.1-0.3c0-0.1,0-0.2,0.1-0.3s0.1-0.1,0.2-0.1c0.1,0,0.2-0.1,0.3-0.1c0.1,0,0.2,0,0.3,0c0,0,0.1,0,0.1-0.1   s0-0.1,0-0.1c0,0,0-0.1,0-0.1c0,0,0-0.1-0.1-0.1H8.5c0,0,0,0-0.1,0c0,0,0,0,0,0.1c0,0,0,0,0,0.1c0,0,0,0,0,0c0,0,0,0.1,0.1,0.1   c0,0,0.1,0.1,0.1,0.1c0,0,0.1,0,0.1,0s0.1,0,0.1,0c0.1,0,0.1,0,0.1,0c0,0,0.1,0,0.1,0c0.1,0,0.3,0.1,0.4,0.2C9.6,1,9.7,1.1,9.8,1.2   c0.1,0.1,0.2,0.2,0.3,0.3s0.2,0.2,0.2,0.3L13,6.1c0,0,0,0,0,0.1V8c0,0.3-0.1,0.5-0.2,0.6c-0.1,0.1-0.4,0.2-0.7,0.3c0,0-0.1,0-0.2,0   c-0.1,0-0.1,0-0.2,0c0,0,0,0,0,0c0,0,0,0,0,0v0.3c0,0,0,0,0,0c0,0,0,0,0,0h4.4c0,0,0,0,0,0c0,0,0,0,0,0V8.9c0,0,0,0,0,0s0,0,0,0   c-0.1,0-0.1,0-0.2,0s-0.1,0-0.2,0c-0.3,0-0.6-0.1-0.7-0.3c-0.1-0.1-0.2-0.3-0.2-0.6V5.8l2.5-4.2c0,0,0,0,0.1-0.1s0.1-0.1,0.1-0.1   C17.7,1.2,17.8,1,18,0.9c0.2-0.1,0.3-0.2,0.6-0.2c0,0,0.1,0,0.1,0c0,0,0.1,0,0.1,0s0.1,0,0.1-0.1c0,0,0-0.1,0-0.1   C18.9,0.4,18.9,0.4,18.8,0.3C18.9,0.3,18.9,0.3,18.8,0.3z M26.7,6.8c-0.1,0-0.1,0-0.2,0c0,0-0.1,0.1-0.1,0.1c0,0.1,0,0.3-0.1,0.4   c0,0.2-0.1,0.3-0.2,0.5c-0.1,0.2-0.2,0.3-0.4,0.4s-0.4,0.2-0.6,0.2h-1.8c-0.1,0-0.2,0-0.3,0c-0.1,0-0.2,0-0.2-0.1   c-0.1,0-0.1-0.1-0.2-0.2c0-0.1-0.1-0.2-0.1-0.3V5.1c0,0,0-0.1,0.1-0.1h1.8c0.1,0,0.2,0,0.3,0s0.2,0.1,0.3,0.2s0.1,0.2,0.2,0.3   c0,0.1,0.1,0.3,0.1,0.6c0,0,0,0,0,0s0,0,0,0h0.3c0,0,0,0,0,0s0,0,0,0V3.3c0,0,0-0.1-0.1-0.1h-0.3c0,0-0.1,0-0.1,0.1   c0,0.2,0,0.4-0.1,0.5S25.2,4,25.2,4.1c-0.1,0.1-0.2,0.1-0.3,0.1c-0.1,0-0.2,0-0.3,0h-1.8c0,0-0.1,0-0.1-0.1v-3c0-0.1,0-0.1,0.1-0.1   H25c0.2,0,0.3,0.1,0.4,0.1c0.1,0.1,0.2,0.2,0.2,0.2s0.1,0.2,0.1,0.3c0,0.1,0,0.2,0.1,0.3c0,0.1,0,0.2,0,0.3s0,0.1,0.1,0.2   c0,0,0,0,0.1,0s0.1,0,0.1,0c0,0,0.1,0,0.1,0c0,0,0.1,0,0.1,0l-0.1-2c0-0.1,0-0.2-0.1-0.2c0,0-0.1,0-0.2,0h-6.4c0,0,0,0,0,0   c0,0,0,0,0,0v0.2c0,0,0,0,0,0c0,0,0,0,0,0h0.1c0.1,0,0.3,0,0.4,0.1s0.3,0.1,0.4,0.1s0.2,0.1,0.3,0.3s0.1,0.2,0.1,0.4V8   c0,0.2-0.1,0.4-0.1,0.5s-0.2,0.2-0.4,0.2s-0.3,0.1-0.5,0.1c-0.2,0-0.4,0-0.6,0h-0.1c0,0,0,0,0,0s0,0,0,0v0.2v0.1c0,0,0,0,0,0   s0,0,0,0h7.5c0,0,0,0,0.1,0s0,0,0-0.1l0.2-2.3C26.9,6.8,26.8,6.8,26.7,6.8C26.8,6.8,26.8,6.8,26.7,6.8z M33.2,5.2   C33,5,32.8,4.7,32.5,4.5S32,4.1,31.7,4s-0.5-0.4-0.8-0.5c-0.3-0.2-0.5-0.4-0.7-0.5c-0.2-0.2-0.4-0.4-0.5-0.6   c-0.1-0.2-0.2-0.4-0.2-0.7c0-0.2,0-0.3,0.1-0.5c0.1-0.1,0.1-0.2,0.3-0.3c0.1-0.1,0.2-0.1,0.4-0.2c0.1,0,0.3-0.1,0.5-0.1   c0.4,0,0.7,0.1,1.1,0.2c0.3,0.2,0.6,0.4,0.8,0.7c0,0,0.1,0.1,0.1,0.1c0,0.1,0,0.1,0.1,0.1s0,0.1,0.1,0.1s0,0.1,0,0.1c0,0,0,0,0.1,0   c0.1,0,0.1,0,0.1,0c0,0,0.1,0,0.1,0s0.1,0,0.1,0l-0.2-1.5c0,0,0-0.1,0-0.1c0,0,0,0-0.1,0l-0.4,0c-0.2,0-0.3-0.1-0.5-0.1   c-0.2,0-0.3-0.1-0.5-0.1c-0.2,0-0.3-0.1-0.5-0.1c-0.2,0-0.3,0-0.5,0c-0.2,0-0.4,0-0.6,0.1c-0.2,0-0.4,0.1-0.6,0.2   c-0.2,0.1-0.4,0.2-0.6,0.3c-0.2,0.1-0.3,0.3-0.5,0.4c-0.1,0.2-0.2,0.3-0.3,0.5C28,1.7,28,1.9,28,2.1c0,0.4,0.1,0.7,0.2,1   s0.3,0.5,0.5,0.8c0.2,0.2,0.4,0.4,0.7,0.6s0.5,0.4,0.8,0.6c0.3,0.2,0.5,0.4,0.8,0.5c0.3,0.2,0.5,0.4,0.7,0.6s0.4,0.4,0.5,0.6   c0.1,0.2,0.2,0.5,0.2,0.8c0,0.5-0.1,0.8-0.4,1c-0.3,0.2-0.6,0.3-1.1,0.3c-0.3,0-0.5,0-0.7-0.1c-0.2,0-0.4-0.1-0.6-0.2   c-0.2-0.1-0.3-0.2-0.4-0.4s-0.3-0.4-0.4-0.6c0,0,0-0.1-0.1-0.1c0-0.1-0.1-0.1-0.1-0.2s-0.1-0.1-0.1-0.2C28.3,7,28.3,7,28.2,7   c-0.1,0-0.1,0-0.2,0.1S28,7.2,28,7.3c0,0,0,0,0,0.1s0,0.1,0,0.2c0,0.1,0,0.3,0.1,0.5c0,0.2,0.1,0.5,0.1,0.9c0,0.1,0,0.1,0.1,0.1   L28.7,9c0,0,0,0,0.1,0c0.1,0,0.2,0,0.3,0.1c0.1,0,0.2,0.1,0.4,0.1c0.2,0.1,0.3,0.1,0.6,0.1c0.2,0,0.5,0.1,0.8,0.1   c0.2,0,0.5,0,0.7-0.1c0.2,0,0.5-0.1,0.7-0.2c0.2-0.1,0.4-0.2,0.6-0.3c0.2-0.1,0.4-0.3,0.5-0.5c0.2-0.2,0.3-0.4,0.4-0.6   c0.1-0.2,0.1-0.5,0.1-0.7c0-0.4-0.1-0.7-0.2-1C33.6,5.7,33.4,5.5,33.2,5.2z M48.4,2.3c-0.2-0.3-0.5-0.6-0.8-0.9s-0.6-0.5-1-0.7   c-0.4-0.2-0.8-0.4-1.2-0.5C45,0.1,44.6,0,44.1,0c-0.5,0-1,0.1-1.5,0.2c-0.5,0.1-0.9,0.3-1.3,0.5c-0.4,0.2-0.8,0.4-1.1,0.7   c-0.3,0.3-0.6,0.6-0.8,1C39.2,2.7,39,3,38.9,3.4s-0.2,0.8-0.2,1.3c0,0.5,0.1,0.9,0.2,1.3c0.1,0.4,0.3,0.8,0.5,1.1s0.4,0.6,0.7,0.8   c0.3,0.2,0.5,0.4,0.8,0.6s0.6,0.3,0.9,0.4c0.3,0.1,0.6,0.2,0.8,0.3c0.3,0.1,0.5,0.1,0.7,0.1c0.2,0,0.4,0,0.6,0c0.5,0,1-0.1,1.5-0.2   c0.5-0.1,0.9-0.3,1.3-0.5s0.7-0.5,1.1-0.8c0.3-0.3,0.6-0.6,0.8-1c0.2-0.4,0.4-0.7,0.5-1.1C49,5.4,49.1,5,49.1,4.6   c0-0.4-0.1-0.8-0.2-1.2C48.8,3,48.6,2.6,48.4,2.3z M47,6.3c-0.1,0.5-0.3,0.9-0.6,1.2s-0.6,0.7-1,0.9s-0.8,0.3-1.4,0.3   c-0.4,0-0.7-0.1-1-0.2c-0.3-0.1-0.6-0.3-0.9-0.5c-0.3-0.2-0.5-0.4-0.7-0.7c-0.2-0.3-0.4-0.6-0.5-0.9c-0.1-0.3-0.2-0.7-0.3-1   c-0.1-0.3-0.1-0.7-0.1-1c0-0.3,0-0.6,0.1-1c0.1-0.3,0.1-0.6,0.3-0.9s0.3-0.5,0.4-0.8c0.2-0.2,0.4-0.5,0.6-0.6   c0.2-0.2,0.5-0.3,0.8-0.4c0.3-0.1,0.6-0.2,0.9-0.2c0.4,0,0.7,0.1,1,0.2C45,0.9,45.3,1,45.6,1.2c0.3,0.2,0.5,0.4,0.7,0.7   c0.2,0.3,0.4,0.6,0.5,0.9c0.1,0.3,0.2,0.7,0.3,1c0.1,0.4,0.1,0.7,0.1,1.1C47.2,5.4,47.1,5.9,47,6.3z M56.8,0.3h-6.4c0,0,0,0,0,0   c0,0,0,0,0,0v0.2c0,0,0,0,0,0c0,0,0,0,0,0h0c0,0,0.1,0,0.2,0c0.1,0,0.2,0,0.3,0.1c0.1,0,0.2,0.1,0.3,0.2c0.1,0.1,0.1,0.2,0.1,0.4V8   c0,0.2-0.1,0.4-0.2,0.5c-0.1,0.1-0.3,0.2-0.5,0.3c0,0-0.1,0-0.2,0.1c-0.1,0-0.1,0-0.2,0c0,0,0,0,0,0c0,0,0,0,0,0v0.2c0,0,0,0,0,0   s0,0,0,0h4.1c0,0,0,0,0,0c0,0,0,0,0,0V9c0,0,0,0,0,0c0,0,0,0,0,0c0,0-0.1,0-0.2,0c-0.1,0-0.1,0-0.2-0.1c-0.1,0-0.2-0.1-0.4-0.1   s-0.2-0.1-0.3-0.1s-0.1-0.1-0.2-0.2c0-0.1-0.1-0.2-0.1-0.3V5c0-0.1,0-0.1,0-0.1s0.1,0,0.1,0h2.2c0.1,0,0.1,0,0.2,0   c0.1,0,0.2,0,0.3,0.1c0.1,0.1,0.2,0.2,0.2,0.3c0.1,0.1,0.1,0.3,0.1,0.5c0,0,0,0,0,0s0,0,0,0h0.3c0,0,0,0,0,0c0,0,0,0,0,0V3.2   c0,0,0-0.1-0.1-0.1h-0.3c0,0-0.1,0-0.1,0.1c0,0.2,0,0.4-0.1,0.5c-0.1,0.1-0.1,0.2-0.2,0.2C56,4,55.9,4,55.8,4c-0.1,0-0.2,0-0.2,0   h-2.1c-0.1,0-0.2,0-0.2-0.1V1.2c0-0.1,0-0.1,0.1-0.1h2.1c0.1,0,0.2,0,0.3,0c0.1,0,0.2,0,0.2,0.1c0.1,0,0.1,0.1,0.2,0.1   s0.1,0.1,0.2,0.2c0,0.1,0.1,0.1,0.1,0.2c0,0.1,0.1,0.2,0.1,0.3s0,0.2,0.1,0.2c0,0.1,0,0.1,0,0.1h0.1c0,0,0.1,0,0.1,0c0,0,0,0,0-0.1   V0.4c0-0.1,0-0.1,0-0.1C56.9,0.3,56.8,0.3,56.8,0.3z M80.4,2.3c-0.2-0.3-0.5-0.6-0.8-0.9s-0.6-0.5-1-0.7s-0.8-0.4-1.2-0.5   S76.6,0,76.1,0c-0.5,0-1,0.1-1.5,0.2c-0.5,0.1-0.9,0.3-1.3,0.5s-0.8,0.4-1.1,0.7c-0.3,0.3-0.6,0.6-0.8,1C71.2,2.7,71,3,70.9,3.4   c-0.1,0.4-0.2,0.8-0.2,1.3c0,0.5,0.1,0.9,0.2,1.3c0.1,0.4,0.3,0.8,0.5,1.1s0.4,0.6,0.7,0.8c0.3,0.2,0.5,0.4,0.8,0.6   c0.3,0.2,0.6,0.3,0.9,0.4c0.3,0.1,0.6,0.2,0.8,0.3c0.3,0.1,0.5,0.1,0.7,0.1c0.2,0,0.4,0,0.6,0c0.5,0,1-0.1,1.5-0.2   c0.5-0.1,0.9-0.3,1.3-0.5s0.7-0.5,1.1-0.8s0.6-0.6,0.8-1c0.2-0.4,0.4-0.7,0.5-1.1C81,5.4,81.1,5,81.1,4.6c0-0.4-0.1-0.8-0.2-1.2   C80.8,3,80.6,2.6,80.4,2.3z M79,6.3c-0.1,0.5-0.3,0.9-0.6,1.2s-0.6,0.7-1,0.9s-0.8,0.3-1.4,0.3c-0.4,0-0.7-0.1-1-0.2   c-0.3-0.1-0.6-0.3-0.9-0.5c-0.3-0.2-0.5-0.4-0.7-0.7c-0.2-0.3-0.4-0.6-0.5-0.9s-0.2-0.7-0.3-1c-0.1-0.3-0.1-0.7-0.1-1   c0-0.3,0-0.6,0.1-1c0.1-0.3,0.1-0.6,0.3-0.9c0.1-0.3,0.3-0.5,0.4-0.8c0.2-0.2,0.4-0.5,0.6-0.6c0.2-0.2,0.5-0.3,0.8-0.4   c0.3-0.1,0.6-0.2,0.9-0.2c0.4,0,0.7,0.1,1,0.2C77,0.9,77.3,1,77.6,1.2s0.5,0.4,0.7,0.7c0.2,0.3,0.4,0.6,0.5,0.9   c0.1,0.3,0.2,0.7,0.3,1c0.1,0.4,0.1,0.7,0.1,1.1C79.2,5.4,79.1,5.9,79,6.3z M93.8,8.9c0,0,0,0-0.1,0c-0.1,0-0.1,0-0.2,0   s-0.2,0-0.3-0.1S93,8.7,92.9,8.7s-0.2-0.1-0.2-0.2c-0.1-0.1-0.1-0.2-0.1-0.3l-0.4-6.8c0-0.1,0-0.3,0.1-0.4c0.1-0.1,0.2-0.2,0.3-0.2   c0.1,0,0.2-0.1,0.3-0.1s0.1,0,0.2,0c0,0,0,0,0,0c0,0,0,0,0,0V0.3c0,0,0,0,0,0c0,0,0,0,0,0h-2.3c0,0-0.1,0-0.1,0.1s-0.1,0.1-0.1,0.2   l-2.8,6.1c0,0,0,0.1-0.1,0.1s-0.1,0-0.1,0s-0.1,0-0.1-0.1l-2.8-6.2c0,0-0.1-0.1-0.1-0.1s-0.1,0-0.1,0h-2.3c0,0,0,0,0,0c0,0,0,0,0,0   v0.3c0,0,0,0.1,0.1,0.1c0.1,0,0.1,0,0.2,0c0.1,0,0.2,0.1,0.3,0.1c0.1,0.1,0.2,0.1,0.2,0.2C83,1.1,83,1.2,83,1.2v0.2   c0,0.5,0,1,0,1.5c0,0.5-0.1,1-0.1,1.5c0,0.5-0.1,1-0.1,1.5c0,0.5-0.1,1-0.1,1.6c0,0.2,0,0.4,0,0.5c0,0.2-0.1,0.3-0.1,0.4   c-0.1,0.1-0.2,0.2-0.3,0.3c-0.2,0.1-0.4,0.1-0.7,0.1c0,0,0,0,0,0c0,0,0,0,0,0v0.3c0,0,0,0.1,0.1,0.1h3.2c0,0,0,0,0-0.1V8.9   c0,0,0,0,0,0s0,0,0,0c-0.1,0-0.3,0-0.4,0S84.1,8.8,84,8.8c-0.1,0-0.2-0.1-0.3-0.2s-0.1-0.1-0.1-0.2V8.1c0-0.2,0-0.4,0-0.7   c0-0.3,0-0.6,0.1-0.9c0-0.3,0-0.7,0.1-1c0-0.3,0-0.7,0.1-1c0-0.3,0-0.6,0.1-0.8s0-0.4,0-0.6c0-0.1,0-0.1,0-0.1c0,0,0,0,0,0   c0,0,0,0,0,0.1l2.8,6c0,0.1,0.1,0.1,0.2,0.1c0.1,0,0.2,0,0.3,0c0.1,0,0.2,0,0.2,0c0,0,0.1,0,0.1-0.1l2.8-6c0,0,0-0.1,0.1-0.1   c0,0,0,0,0,0.1l0.3,5.2c0,0.1,0,0.2-0.1,0.3s-0.2,0.1-0.3,0.2c-0.1,0-0.2,0.1-0.4,0.1c-0.1,0-0.2,0-0.4,0c0,0-0.1,0-0.1,0.1v0.3   c0,0,0,0.1,0.1,0.1h4.3c0,0,0,0,0,0c0,0,0,0,0,0L93.8,8.9C93.8,8.9,93.8,8.9,93.8,8.9C93.8,8.9,93.8,8.9,93.8,8.9z M102,6.8   C101.9,6.8,101.9,6.8,102,6.8c-0.1,0-0.2,0-0.2,0s-0.1,0.1-0.1,0.1c0,0.1,0,0.3-0.1,0.4c0,0.2-0.1,0.3-0.2,0.5s-0.2,0.3-0.4,0.4   s-0.4,0.2-0.6,0.2h-1.8c-0.1,0-0.2,0-0.3,0c-0.1,0-0.2,0-0.2-0.1s-0.1-0.1-0.2-0.2c0-0.1-0.1-0.2-0.1-0.3V5.1c0,0,0-0.1,0.1-0.1   h1.8c0.1,0,0.2,0,0.3,0c0.1,0,0.2,0.1,0.3,0.2s0.1,0.2,0.2,0.3s0.1,0.3,0.1,0.6c0,0,0,0,0,0c0,0,0,0,0,0h0.3c0,0,0,0,0,0s0,0,0,0   V3.3c0,0,0-0.1-0.1-0.1h-0.3c0,0-0.1,0-0.1,0.1c0,0.2,0,0.4-0.1,0.5c0,0.1-0.1,0.2-0.2,0.3c-0.1,0.1-0.2,0.1-0.3,0.1s-0.2,0-0.3,0   h-1.8c0,0-0.1,0-0.1-0.1v-3c0-0.1,0-0.1,0.1-0.1h2.3c0.2,0,0.3,0.1,0.4,0.1c0.1,0.1,0.2,0.2,0.2,0.2s0.1,0.2,0.1,0.3   c0,0.1,0.1,0.2,0.1,0.3c0,0.1,0,0.2,0,0.3s0,0.1,0.1,0.2c0,0,0,0,0.1,0s0.1,0,0.1,0c0,0,0.1,0,0.1,0c0,0,0.1,0,0.1,0l-0.1-2   c0-0.1,0-0.2-0.1-0.2c0,0-0.1,0-0.2,0h-6.4c0,0,0,0,0,0c0,0,0,0,0,0v0.2c0,0,0,0,0,0c0,0,0,0,0,0h0.1c0.1,0,0.3,0,0.4,0.1   s0.3,0.1,0.4,0.1s0.2,0.1,0.3,0.3C95.9,1.2,96,1.3,96,1.5V8c0,0.2-0.1,0.4-0.1,0.5s-0.2,0.2-0.4,0.2s-0.3,0.1-0.5,0.1   c-0.2,0-0.4,0-0.6,0h-0.1c0,0,0,0,0,0s0,0,0,0v0.2v0.1c0,0,0,0,0,0c0,0,0,0,0,0h7.5c0,0,0,0,0.1,0s0,0,0-0.1L102,6.8   C102,6.8,102,6.8,102,6.8z M80,8.7C74.2,13.9,67.3,5,67.3,5c0.2-0.1,0.4-0.2,0.6-0.3c0.2-0.1,0.3-0.3,0.5-0.4   c0.1-0.2,0.2-0.4,0.3-0.6c0.1-0.2,0.1-0.5,0.1-0.7c0-0.4-0.1-0.8-0.3-1.1c-0.2-0.3-0.4-0.6-0.7-0.8c-0.3-0.2-0.6-0.4-1-0.5   c-0.4-0.1-0.7-0.2-1-0.2h-0.7c-0.2,0-0.5,0-0.8,0c-0.3,0-0.5,0-0.8,0c-0.3,0-0.5,0-0.8,0c-0.3,0-0.5,0-0.8,0c-0.2,0-0.3,0-0.4,0   c-0.1,0-0.2,0-0.2,0c0,0-0.1,0-0.1,0s0,0,0,0c0,0,0,0,0,0c0,0,0,0,0,0v0.3c0,0,0,0,0,0s0,0,0,0h0.2c0,0,0.1,0,0.2,0   c0.1,0,0.2,0.1,0.3,0.1c0.1,0.1,0.2,0.2,0.3,0.3c0.1,0.1,0.1,0.3,0.1,0.5v6.5c0,0.2,0,0.3-0.1,0.5c-0.1,0.1-0.3,0.2-0.5,0.3   c0,0-0.1,0-0.1,0s-0.1,0-0.2,0c-0.1,0-0.1,0-0.2,0c-0.1,0-0.1,0-0.1,0s0,0,0,0s0,0,0,0v0.1c0,0.1,0,0.1,0,0.2c0,0.1,0,0.1,0,0.1   h4.5c0,0,0,0,0,0c0,0,0,0,0,0V9c0,0,0,0,0,0s0,0,0,0c0,0-0.1,0-0.1,0c-0.1,0-0.1,0-0.2,0s-0.1,0-0.2,0c0,0-0.1,0-0.1,0   c-0.2,0-0.3-0.1-0.4-0.1s-0.2-0.1-0.3-0.1c-0.1-0.1-0.1-0.1-0.2-0.2c0-0.1,0-0.2,0-0.3V5.4c0,0,0,0,0-0.1c0,0,0,0,0,0   c0,0,0,0,0.1,0c0,0,0,0,0.1,0l0.7,0c3.2,4,6.8,5.2,6.8,5.2c5.4,1.6,8-1.4,8.1-1.5C80.3,8.8,80.2,8.6,80,8.7z M66.9,3.6   c-0.1,0.3-0.2,0.5-0.3,0.7c-0.1,0.2-0.3,0.3-0.6,0.5s-0.6,0.2-0.9,0.2c-0.1,0-0.2,0-0.3,0c-0.1,0-0.1,0-0.2,0c0,0-0.1,0-0.1,0   c0,0,0-0.1,0-0.1l0-0.2V0.8c0,0,0-0.1,0.1-0.1c0,0,0.1,0,0.1,0c0.1,0,0.1,0,0.2,0c0,0,0.1,0,0.1,0s0.1,0,0.1,0c0,0,0.1,0,0.1,0   c0.3,0,0.5,0.1,0.7,0.2c0.2,0.1,0.4,0.3,0.6,0.4c0.2,0.2,0.3,0.4,0.4,0.7C66.9,2.2,67,2.5,67,2.8C67,3,66.9,3.3,66.9,3.6z" fill="#000000"/>
</g>
</svg>